<?xml version="1.0" encoding="UTF-8" standalone="no"?>
<!DOCTYPE svg PUBLIC "-//W3C//DTD SVG 1.1//EN"
 "http://www.w3.org/Graphics/SVG/1.1/DTD/svg11.dtd">
<!-- Generated by graphviz version 2.43.0 (0)
 -->
<!-- Title: dependency&#45;cruiser output Pages: 1 -->
<svg width="887pt" height="439pt"
 viewBox="0.00 0.00 887.00 439.43" xmlns="http://www.w3.org/2000/svg" xmlns:xlink="http://www.w3.org/1999/xlink">
<g id="graph0" class="graph" transform="scale(1 1) rotate(0) translate(4 435.43)">
<title>dependency&#45;cruiser output</title>
<polygon fill="white" stroke="transparent" points="-4,4 -4,-435.43 883,-435.43 883,4 -4,4"/>
<g id="clust1" class="cluster">
<title>cluster_src</title>
<path fill="#ffffff" stroke="black" stroke-width="2" d="M20,-19.68C20,-19.68 859,-19.68 859,-19.68 865,-19.68 871,-25.68 871,-31.68 871,-31.68 871,-409.68 871,-409.68 871,-415.68 865,-421.68 859,-421.68 859,-421.68 20,-421.68 20,-421.68 14,-421.68 8,-415.68 8,-409.68 8,-409.68 8,-31.68 8,-31.68 8,-25.68 14,-19.68 20,-19.68"/>
<text text-anchor="middle" x="439.5" y="-410.48" font-family="Helvetica,sans-Serif" font-weight="bold" font-size="9.00">src</text>
</g>
<g id="clust2" class="cluster">
<title>cluster_src/api</title>
<path fill="#ffffff" stroke="black" stroke-width="2" d="M249,-33.68C249,-33.68 497,-33.68 497,-33.68 503,-33.68 509,-39.68 509,-45.68 509,-45.68 509,-103.68 509,-103.68 509,-109.68 503,-115.68 497,-115.68 497,-115.68 249,-115.68 249,-115.68 243,-115.68 237,-109.68 237,-103.68 237,-103.68 237,-45.68 237,-45.68 237,-39.68 243,-33.68 249,-33.68"/>
<text text-anchor="middle" x="373" y="-104.48" font-family="Helvetica,sans-Serif" font-weight="bold" font-size="9.00">api</text>
</g>
<g id="clust3" class="cluster">
<title>cluster_src/core</title>
<path fill="#ffffff" stroke="black" stroke-width="2" d="M28,-286.68C28,-286.68 217,-286.68 217,-286.68 223,-286.68 229,-292.68 229,-298.68 229,-298.68 229,-326.68 229,-326.68 229,-332.68 223,-338.68 217,-338.68 217,-338.68 28,-338.68 28,-338.68 22,-338.68 16,-332.68 16,-326.68 16,-326.68 16,-298.68 16,-298.68 16,-292.68 22,-286.68 28,-286.68"/>
<text text-anchor="middle" x="122.5" y="-327.48" font-family="Helvetica,sans-Serif" font-weight="bold" font-size="9.00">core</text>
</g>
<g id="clust4" class="cluster">
<title>cluster_src/domain</title>
<path fill="#ffffff" stroke="black" stroke-width="2" d="M401,-123.68C401,-123.68 851,-123.68 851,-123.68 857,-123.68 863,-129.68 863,-135.68 863,-135.68 863,-381.68 863,-381.68 863,-387.68 857,-393.68 851,-393.68 851,-393.68 401,-393.68 401,-393.68 395,-393.68 389,-387.68 389,-381.68 389,-381.68 389,-135.68 389,-135.68 389,-129.68 395,-123.68 401,-123.68"/>
<text text-anchor="middle" x="626" y="-382.48" font-family="Helvetica,sans-Serif" font-weight="bold" font-size="9.00">domain</text>
</g>
<g id="clust5" class="cluster">
<title>cluster_src/domain/__tests__</title>
<path fill="#ffffff" stroke="black" stroke-width="2" d="M529,-171.68C529,-171.68 648,-171.68 648,-171.68 654,-171.68 660,-177.68 660,-183.68 660,-183.68 660,-211.68 660,-211.68 660,-217.68 654,-223.68 648,-223.68 648,-223.68 529,-223.68 529,-223.68 523,-223.68 517,-217.68 517,-211.68 517,-211.68 517,-183.68 517,-183.68 517,-177.68 523,-171.68 529,-171.68"/>
<text text-anchor="middle" x="588.5" y="-212.48" font-family="Helvetica,sans-Serif" font-weight="bold" font-size="9.00">__tests__</text>
</g>
<g id="clust6" class="cluster">
<title>cluster_src/domain/presenters</title>
<path fill="#ffffff" stroke="black" stroke-width="2" d="M545,-231.68C545,-231.68 632,-231.68 632,-231.68 638,-231.68 644,-237.68 644,-243.68 644,-243.68 644,-301.68 644,-301.68 644,-307.68 638,-313.68 632,-313.68 632,-313.68 545,-313.68 545,-313.68 539,-313.68 533,-307.68 533,-301.68 533,-301.68 533,-243.68 533,-243.68 533,-237.68 539,-231.68 545,-231.68"/>
<text text-anchor="middle" x="588.5" y="-302.48" font-family="Helvetica,sans-Serif" font-weight="bold" font-size="9.00">presenters</text>
</g>
<g id="clust7" class="cluster">
<title>cluster_src/domain/services</title>
<path fill="#ffffff" stroke="black" stroke-width="2" d="M680,-199.68C680,-199.68 754,-199.68 754,-199.68 760,-199.68 766,-205.68 766,-211.68 766,-211.68 766,-269.68 766,-269.68 766,-275.68 760,-281.68 754,-281.68 754,-281.68 680,-281.68 680,-281.68 674,-281.68 668,-275.68 668,-269.68 668,-269.68 668,-211.68 668,-211.68 668,-205.68 674,-199.68 680,-199.68"/>
<text text-anchor="middle" x="717" y="-270.48" font-family="Helvetica,sans-Serif" font-weight="bold" font-size="9.00">services</text>
</g>
<g id="clust8" class="cluster">
<title>cluster_src/spi</title>
<path fill="#ffffff" stroke="black" stroke-width="2" d="M258.5,-300.68C258.5,-300.68 358.5,-300.68 358.5,-300.68 364.5,-300.68 370.5,-306.68 370.5,-312.68 370.5,-312.68 370.5,-370.68 370.5,-370.68 370.5,-376.68 364.5,-382.68 358.5,-382.68 358.5,-382.68 258.5,-382.68 258.5,-382.68 252.5,-382.68 246.5,-376.68 246.5,-370.68 246.5,-370.68 246.5,-312.68 246.5,-312.68 246.5,-306.68 252.5,-300.68 258.5,-300.68"/>
<text text-anchor="middle" x="308.5" y="-371.48" font-family="Helvetica,sans-Serif" font-weight="bold" font-size="9.00">spi</text>
</g>
<!-- src/api/UserController.fastify.ts -->
<g id="node1" class="node">
<title>src/api/UserController.fastify.ts</title>
<g id="a_node1"><a xlink:href="src/api/UserController.fastify.ts" xlink:title="UserController.fastify.ts">
<path fill="#ddfeff" stroke="black" d="M362,-89.68C362,-89.68 255,-89.68 255,-89.68 252,-89.68 249,-86.68 249,-83.68 249,-83.68 249,-77.68 249,-77.68 249,-74.68 252,-71.68 255,-71.68 255,-71.68 362,-71.68 362,-71.68 365,-71.68 368,-74.68 368,-77.68 368,-77.68 368,-83.68 368,-83.68 368,-86.68 365,-89.68 362,-89.68"/>
<text text-anchor="start" x="257" y="-78.48" font-family="Helvetica,sans-Serif" font-size="9.00">UserController.fastify.ts</text>
</a>
</g>
</g>
<!-- src/domain/User.UseCases.ts -->
<g id="node2" class="node">
<title>src/domain/User.UseCases.ts</title>
<g id="a_node2"><a xlink:href="src/domain/User.UseCases.ts" xlink:title="User.UseCases.ts">
<path fill="#ddfeff" stroke="black" d="M483,-287.68C483,-287.68 403,-287.68 403,-287.68 400,-287.68 397,-284.68 397,-281.68 397,-281.68 397,-275.68 397,-275.68 397,-272.68 400,-269.68 403,-269.68 403,-269.68 483,-269.68 483,-269.68 486,-269.68 489,-272.68 489,-275.68 489,-275.68 489,-281.68 489,-281.68 489,-284.68 486,-287.68 483,-287.68"/>
<text text-anchor="start" x="405" y="-276.48" font-family="Helvetica,sans-Serif" font-size="9.00">User.UseCases.ts</text>
</a>
</g>
</g>
<!-- src/api/UserController.fastify.ts&#45;&gt;src/domain/User.UseCases.ts -->
<g id="edge1" class="edge">
<title>src/api/UserController.fastify.ts&#45;&gt;src/domain/User.UseCases.ts</title>
<path fill="none" stroke="#000000" stroke-width="2" stroke-opacity="0.200000" d="M315,-89.76C327.22,-109.82 357.7,-159.37 385,-199.68 400.68,-222.84 419.87,-249.03 431.51,-264.68"/>
<polygon fill="#000000" fill-opacity="0.200000" stroke="#000000" stroke-width="2" stroke-opacity="0.200000" points="429.88,-266.01 435.15,-269.57 433.25,-263.5 429.88,-266.01"/>
</g>
<!-- src/domain/UserNotFoundError.ts -->
<g id="node3" class="node">
<title>src/domain/UserNotFoundError.ts</title>
<g id="a_node3"><a xlink:href="src/domain/UserNotFoundError.ts" xlink:title="UserNotFoundError.ts">
<path fill="#ddfeff" stroke="black" d="M639,-149.68C639,-149.68 538,-149.68 538,-149.68 535,-149.68 532,-146.68 532,-143.68 532,-143.68 532,-137.68 532,-137.68 532,-134.68 535,-131.68 538,-131.68 538,-131.68 639,-131.68 639,-131.68 642,-131.68 645,-134.68 645,-137.68 645,-137.68 645,-143.68 645,-143.68 645,-146.68 642,-149.68 639,-149.68"/>
<text text-anchor="start" x="540" y="-138.48" font-family="Helvetica,sans-Serif" font-size="9.00">UserNotFoundError.ts</text>
</a>
</g>
</g>
<!-- src/api/UserController.fastify.ts&#45;&gt;src/domain/UserNotFoundError.ts -->
<g id="edge2" class="edge">
<title>src/api/UserController.fastify.ts&#45;&gt;src/domain/UserNotFoundError.ts</title>
<path fill="none" stroke="#000000" stroke-width="2" stroke-opacity="0.200000" d="M351.42,-89.73C401.96,-100.64 486.68,-118.93 539.71,-130.37"/>
<polygon fill="#000000" fill-opacity="0.200000" stroke="#000000" stroke-width="2" stroke-opacity="0.200000" points="539.39,-132.45 545.69,-131.66 540.27,-128.34 539.39,-132.45"/>
</g>
<!-- src/api/UserPresenter.json.ts -->
<g id="node4" class="node">
<title>src/api/UserPresenter.json.ts</title>
<g id="a_node4"><a xlink:href="src/api/UserPresenter.json.ts" xlink:title="UserPresenter.json.ts">
<path fill="#ddfeff" stroke="black" d="M492.5,-89.68C492.5,-89.68 393.5,-89.68 393.5,-89.68 390.5,-89.68 387.5,-86.68 387.5,-83.68 387.5,-83.68 387.5,-77.68 387.5,-77.68 387.5,-74.68 390.5,-71.68 393.5,-71.68 393.5,-71.68 492.5,-71.68 492.5,-71.68 495.5,-71.68 498.5,-74.68 498.5,-77.68 498.5,-77.68 498.5,-83.68 498.5,-83.68 498.5,-86.68 495.5,-89.68 492.5,-89.68"/>
<text text-anchor="start" x="395.5" y="-78.48" font-family="Helvetica,sans-Serif" font-size="9.00">UserPresenter.json.ts</text>
</a>
</g>
</g>
<!-- src/api/UserController.fastify.ts&#45;&gt;src/api/UserPresenter.json.ts -->
<g id="edge3" class="edge">
<title>src/api/UserController.fastify.ts&#45;&gt;src/api/UserPresenter.json.ts</title>
<path fill="none" stroke="#000000" stroke-width="2" stroke-opacity="0.200000" d="M368,-80.68C372.29,-80.68 376.62,-80.68 380.92,-80.68"/>
<polygon fill="#000000" fill-opacity="0.200000" stroke="#000000" stroke-width="2" stroke-opacity="0.200000" points="381.19,-82.78 387.19,-80.68 381.19,-78.58 381.19,-82.78"/>
</g>
<!-- src/api/UsersPresenter.json.ts -->
<g id="node5" class="node">
<title>src/api/UsersPresenter.json.ts</title>
<g id="a_node5"><a xlink:href="src/api/UsersPresenter.json.ts" xlink:title="UsersPresenter.json.ts">
<path fill="#ddfeff" stroke="black" d="M495,-59.68C495,-59.68 391,-59.68 391,-59.68 388,-59.68 385,-56.68 385,-53.68 385,-53.68 385,-47.68 385,-47.68 385,-44.68 388,-41.68 391,-41.68 391,-41.68 495,-41.68 495,-41.68 498,-41.68 501,-44.68 501,-47.68 501,-47.68 501,-53.68 501,-53.68 501,-56.68 498,-59.68 495,-59.68"/>
<text text-anchor="start" x="393" y="-48.48" font-family="Helvetica,sans-Serif" font-size="9.00">UsersPresenter.json.ts</text>
</a>
</g>
</g>
<!-- src/api/UserController.fastify.ts&#45;&gt;src/api/UsersPresenter.json.ts -->
<g id="edge4" class="edge">
<title>src/api/UserController.fastify.ts&#45;&gt;src/api/UsersPresenter.json.ts</title>
<path fill="none" stroke="#000000" stroke-width="2" stroke-opacity="0.200000" d="M349.25,-71.68C363.92,-68.36 380.67,-64.57 395.86,-61.13"/>
<polygon fill="#000000" fill-opacity="0.200000" stroke="#000000" stroke-width="2" stroke-opacity="0.200000" points="396.43,-63.16 401.82,-59.78 395.5,-59.06 396.43,-63.16"/>
</g>
<!-- src/domain/User.UseCases.ts&#45;&gt;src/domain/UserNotFoundError.ts -->
<g id="edge25" class="edge">
<title>src/domain/User.UseCases.ts&#45;&gt;src/domain/UserNotFoundError.ts</title>
<path fill="none" stroke="#000000" stroke-width="2" stroke-opacity="0.200000" d="M446.86,-269.51C454.4,-246.91 477.01,-188.28 517,-158.68 520.34,-156.21 523.99,-154.07 527.81,-152.23"/>
<polygon fill="#000000" fill-opacity="0.200000" stroke="#000000" stroke-width="2" stroke-opacity="0.200000" points="528.86,-154.06 533.52,-149.74 527.18,-150.22 528.86,-154.06"/>
</g>
<!-- src/domain/presenters/UserPresenter.ts -->
<g id="node7" class="node">
<title>src/domain/presenters/UserPresenter.ts</title>
<g id="a_node7"><a xlink:href="src/domain/presenters/UserPresenter.ts" xlink:title="UserPresenter.ts">
<path fill="#ddfeff" stroke="black" d="M627.5,-287.68C627.5,-287.68 549.5,-287.68 549.5,-287.68 546.5,-287.68 543.5,-284.68 543.5,-281.68 543.5,-281.68 543.5,-275.68 543.5,-275.68 543.5,-272.68 546.5,-269.68 549.5,-269.68 549.5,-269.68 627.5,-269.68 627.5,-269.68 630.5,-269.68 633.5,-272.68 633.5,-275.68 633.5,-275.68 633.5,-281.68 633.5,-281.68 633.5,-284.68 630.5,-287.68 627.5,-287.68"/>
<text text-anchor="start" x="551.5" y="-276.48" font-family="Helvetica,sans-Serif" font-size="9.00">UserPresenter.ts</text>
</a>
</g>
</g>
<!-- src/domain/User.UseCases.ts&#45;&gt;src/domain/presenters/UserPresenter.ts -->
<g id="edge20" class="edge">
<title>src/domain/User.UseCases.ts&#45;&gt;src/domain/presenters/UserPresenter.ts</title>
<path fill="none" stroke="#000000" stroke-width="2" stroke-opacity="0.200000" d="M489.01,-278.68C504.25,-278.68 521.36,-278.68 537,-278.68"/>
<polygon fill="#000000" fill-opacity="0.200000" stroke="#000000" stroke-width="2" stroke-opacity="0.200000" points="537.14,-280.78 543.14,-278.68 537.14,-276.58 537.14,-280.78"/>
</g>
<!-- src/domain/services/UserService.ts -->
<g id="node8" class="node">
<title>src/domain/services/UserService.ts</title>
<g id="a_node8"><a xlink:href="src/domain/services/UserService.ts" xlink:title="UserService.ts">
<path fill="#ddfeff" stroke="black" d="M751.5,-225.68C751.5,-225.68 682.5,-225.68 682.5,-225.68 679.5,-225.68 676.5,-222.68 676.5,-219.68 676.5,-219.68 676.5,-213.68 676.5,-213.68 676.5,-210.68 679.5,-207.68 682.5,-207.68 682.5,-207.68 751.5,-207.68 751.5,-207.68 754.5,-207.68 757.5,-210.68 757.5,-213.68 757.5,-213.68 757.5,-219.68 757.5,-219.68 757.5,-222.68 754.5,-225.68 751.5,-225.68"/>
<text text-anchor="start" x="684.5" y="-214.48" font-family="Helvetica,sans-Serif" font-size="9.00">UserService.ts</text>
</a>
</g>
</g>
<!-- src/domain/User.UseCases.ts&#45;&gt;src/domain/services/UserService.ts -->
<g id="edge22" class="edge">
<title>src/domain/User.UseCases.ts&#45;&gt;src/domain/services/UserService.ts</title>
<path fill="none" stroke="#000000" stroke-width="2" stroke-opacity="0.200000" d="M456.69,-287.72C470.68,-297.09 494.24,-311.11 517,-316.68 547.87,-324.24 636.5,-338.08 660,-316.68 674.03,-303.91 656.06,-246.43 668,-231.68 669.01,-230.44 670.12,-229.29 671.32,-228.24"/>
<polygon fill="#000000" fill-opacity="0.200000" stroke="#000000" stroke-width="2" stroke-opacity="0.200000" points="672.67,-229.86 676.29,-224.63 670.2,-226.46 672.67,-229.86"/>
</g>
<!-- src/domain/presenters/UsersPresenter.ts -->
<g id="node9" class="node">
<title>src/domain/presenters/UsersPresenter.ts</title>
<g id="a_node9"><a xlink:href="src/domain/presenters/UsersPresenter.ts" xlink:title="UsersPresenter.ts">
<path fill="#ddfeff" stroke="black" d="M630,-257.68C630,-257.68 547,-257.68 547,-257.68 544,-257.68 541,-254.68 541,-251.68 541,-251.68 541,-245.68 541,-245.68 541,-242.68 544,-239.68 547,-239.68 547,-239.68 630,-239.68 630,-239.68 633,-239.68 636,-242.68 636,-245.68 636,-245.68 636,-251.68 636,-251.68 636,-254.68 633,-257.68 630,-257.68"/>
<text text-anchor="start" x="549" y="-246.48" font-family="Helvetica,sans-Serif" font-size="9.00">UsersPresenter.ts</text>
</a>
</g>
</g>
<!-- src/domain/User.UseCases.ts&#45;&gt;src/domain/presenters/UsersPresenter.ts -->
<g id="edge21" class="edge">
<title>src/domain/User.UseCases.ts&#45;&gt;src/domain/presenters/UsersPresenter.ts</title>
<path fill="none" stroke="#000000" stroke-width="2" stroke-opacity="0.200000" d="M487.05,-269.68C503.08,-266.33 521.4,-262.5 537.96,-259.04"/>
<polygon fill="#000000" fill-opacity="0.200000" stroke="#000000" stroke-width="2" stroke-opacity="0.200000" points="538.54,-261.07 543.98,-257.78 537.68,-256.95 538.54,-261.07"/>
</g>
<!-- src/domain/Id.ts -->
<g id="node16" class="node">
<title>src/domain/Id.ts</title>
<g id="a_node16"><a xlink:href="src/domain/Id.ts" xlink:title="Id.ts">
<path fill="#ddfeff" stroke="black" d="M738,-367.68C738,-367.68 696,-367.68 696,-367.68 693,-367.68 690,-364.68 690,-361.68 690,-361.68 690,-355.68 690,-355.68 690,-352.68 693,-349.68 696,-349.68 696,-349.68 738,-349.68 738,-349.68 741,-349.68 744,-352.68 744,-355.68 744,-355.68 744,-361.68 744,-361.68 744,-364.68 741,-367.68 738,-367.68"/>
<text text-anchor="start" x="706.5" y="-356.48" font-family="Helvetica,sans-Serif" font-size="9.00">Id.ts</text>
</a>
</g>
</g>
<!-- src/domain/User.UseCases.ts&#45;&gt;src/domain/Id.ts -->
<g id="edge19" class="edge">
<title>src/domain/User.UseCases.ts&#45;&gt;src/domain/Id.ts</title>
<path fill="none" stroke="#000000" stroke-width="2" stroke-opacity="0.200000" d="M448.71,-287.73C458.57,-305.54 483.27,-344.68 517,-359.68 571.49,-383.93 642.99,-375.02 683.77,-366.65"/>
<polygon fill="#000000" fill-opacity="0.200000" stroke="#000000" stroke-width="2" stroke-opacity="0.200000" points="684.37,-368.67 689.81,-365.37 683.5,-364.56 684.37,-368.67"/>
</g>
<!-- src/domain/services/UuidService.ts -->
<g id="node18" class="node">
<title>src/domain/services/UuidService.ts</title>
<g id="a_node18"><a xlink:href="src/domain/services/UuidService.ts" xlink:title="UuidService.ts">
<path fill="#ddfeff" stroke="black" d="M752,-255.68C752,-255.68 682,-255.68 682,-255.68 679,-255.68 676,-252.68 676,-249.68 676,-249.68 676,-243.68 676,-243.68 676,-240.68 679,-237.68 682,-237.68 682,-237.68 752,-237.68 752,-237.68 755,-237.68 758,-240.68 758,-243.68 758,-243.68 758,-249.68 758,-249.68 758,-252.68 755,-255.68 752,-255.68"/>
<text text-anchor="start" x="684" y="-244.48" font-family="Helvetica,sans-Serif" font-size="9.00">UuidService.ts</text>
</a>
</g>
</g>
<!-- src/domain/User.UseCases.ts&#45;&gt;src/domain/services/UuidService.ts -->
<g id="edge23" class="edge">
<title>src/domain/User.UseCases.ts&#45;&gt;src/domain/services/UuidService.ts</title>
<path fill="none" stroke="#000000" stroke-width="2" stroke-opacity="0.200000" d="M446.71,-269.65C453.91,-247.52 475.8,-190.79 517,-168.68 531,-161.17 648.08,-158.18 660,-168.68 681.18,-187.34 649.88,-210.04 668,-231.68 668.84,-232.69 669.75,-233.63 670.71,-234.5"/>
<polygon fill="#000000" fill-opacity="0.200000" stroke="#000000" stroke-width="2" stroke-opacity="0.200000" points="669.87,-236.49 675.94,-238.39 672.37,-233.12 669.87,-236.49"/>
</g>
<!-- src/domain/User.ts -->
<g id="node19" class="node">
<title>src/domain/User.ts</title>
<g id="a_node19"><a xlink:href="src/domain/User.ts" xlink:title="User.ts">
<path fill="#ddfeff" stroke="black" d="M609.5,-353.68C609.5,-353.68 567.5,-353.68 567.5,-353.68 564.5,-353.68 561.5,-350.68 561.5,-347.68 561.5,-347.68 561.5,-341.68 561.5,-341.68 561.5,-338.68 564.5,-335.68 567.5,-335.68 567.5,-335.68 609.5,-335.68 609.5,-335.68 612.5,-335.68 615.5,-338.68 615.5,-341.68 615.5,-341.68 615.5,-347.68 615.5,-347.68 615.5,-350.68 612.5,-353.68 609.5,-353.68"/>
<text text-anchor="start" x="573" y="-342.48" font-family="Helvetica,sans-Serif" font-size="9.00">User.ts</text>
</a>
</g>
</g>
<!-- src/domain/User.UseCases.ts&#45;&gt;src/domain/User.ts -->
<g id="edge24" class="edge">
<title>src/domain/User.UseCases.ts&#45;&gt;src/domain/User.ts</title>
<path fill="none" stroke="#000000" stroke-width="2" stroke-opacity="0.200000" d="M455.19,-287.77C468.96,-298.52 493.41,-316.27 517,-326.68 529.12,-332.03 543.13,-336.02 555.46,-338.86"/>
<polygon fill="#000000" fill-opacity="0.200000" stroke="#000000" stroke-width="2" stroke-opacity="0.200000" points="555.05,-340.92 561.36,-340.17 555.96,-336.82 555.05,-340.92"/>
</g>
<!-- src/api/UserPresenter.json.ts&#45;&gt;src/domain/presenters/UserPresenter.ts -->
<g id="edge7" class="edge">
<title>src/api/UserPresenter.json.ts&#45;&gt;src/domain/presenters/UserPresenter.ts</title>
<path fill="none" stroke="#000000" stroke-width="2" stroke-opacity="0.200000" d="M451.19,-89.83C465.07,-108.02 495.36,-150.56 509,-191.68 514.07,-206.96 506.19,-251.75 517,-263.68 522.42,-269.67 529.59,-273.59 537.28,-276.11"/>
<polygon fill="#000000" fill-opacity="0.200000" stroke="#000000" stroke-width="2" stroke-opacity="0.200000" points="536.9,-278.18 543.25,-277.77 538.03,-274.14 536.9,-278.18"/>
</g>
<!-- src/api/UserPresenter.json.ts&#45;&gt;src/domain/services/UserService.ts -->
<g id="edge8" class="edge">
<title>src/api/UserPresenter.json.ts&#45;&gt;src/domain/services/UserService.ts</title>
<path fill="none" stroke="#000000" stroke-width="2" stroke-opacity="0.200000" d="M498.5,-78.61C545.33,-79.49 612.58,-87.34 660,-120.68 688.44,-140.69 704.59,-180.1 711.66,-201.68"/>
<polygon fill="#000000" fill-opacity="0.200000" stroke="#000000" stroke-width="2" stroke-opacity="0.200000" points="709.69,-202.42 713.49,-207.52 713.7,-201.16 709.69,-202.42"/>
</g>
<!-- src/api/UsersPresenter.json.ts&#45;&gt;src/domain/services/UserService.ts -->
<g id="edge10" class="edge">
<title>src/api/UsersPresenter.json.ts&#45;&gt;src/domain/services/UserService.ts</title>
<path fill="none" stroke="#000000" stroke-width="2" stroke-opacity="0.200000" d="M501.32,-42.61C548.64,-39.18 615.07,-42.17 660,-76.68 700.34,-107.67 711.7,-172.27 714.84,-201.61"/>
<polygon fill="#000000" fill-opacity="0.200000" stroke="#000000" stroke-width="2" stroke-opacity="0.200000" points="712.75,-201.86 715.42,-207.63 716.93,-201.46 712.75,-201.86"/>
</g>
<!-- src/api/UsersPresenter.json.ts&#45;&gt;src/domain/presenters/UsersPresenter.ts -->
<g id="edge9" class="edge">
<title>src/api/UsersPresenter.json.ts&#45;&gt;src/domain/presenters/UsersPresenter.ts</title>
<path fill="none" stroke="#000000" stroke-width="2" stroke-opacity="0.200000" d="M501.03,-58.7C504,-60.62 506.7,-62.93 509,-65.68 531.99,-93.16 495.07,-198.36 517,-226.68 521.66,-232.7 527.95,-237.11 534.87,-240.34"/>
<polygon fill="#000000" fill-opacity="0.200000" stroke="#000000" stroke-width="2" stroke-opacity="0.200000" points="534.45,-242.44 540.8,-242.78 536.05,-238.55 534.45,-242.44"/>
</g>
<!-- src/api/UserPresenter.console.ts -->
<g id="node6" class="node">
<title>src/api/UserPresenter.console.ts</title>
<g id="a_node6"><a xlink:href="src/api/UserPresenter.console.ts" xlink:title="UserPresenter.console.ts">
<path fill="#ddfeff" stroke="black" d="M366,-59.68C366,-59.68 251,-59.68 251,-59.68 248,-59.68 245,-56.68 245,-53.68 245,-53.68 245,-47.68 245,-47.68 245,-44.68 248,-41.68 251,-41.68 251,-41.68 366,-41.68 366,-41.68 369,-41.68 372,-44.68 372,-47.68 372,-47.68 372,-53.68 372,-53.68 372,-56.68 369,-59.68 366,-59.68"/>
<text text-anchor="start" x="253" y="-48.48" font-family="Helvetica,sans-Serif" font-size="9.00">UserPresenter.console.ts</text>
</a>
</g>
</g>
<!-- src/api/UserPresenter.console.ts&#45;&gt;src/domain/presenters/UserPresenter.ts -->
<g id="edge5" class="edge">
<title>src/api/UserPresenter.console.ts&#45;&gt;src/domain/presenters/UserPresenter.ts</title>
<path fill="none" stroke="#000000" stroke-width="2" stroke-opacity="0.200000" d="M363.03,-59.76C366.24,-61.43 369.27,-63.39 372,-65.68 383.13,-75.03 376.34,-84.02 385,-95.68 428.04,-153.67 474.55,-137.21 509,-200.68 522.46,-225.49 497.89,-242.91 517,-263.68 522.47,-269.63 529.66,-273.53 537.36,-276.04"/>
<polygon fill="#000000" fill-opacity="0.200000" stroke="#000000" stroke-width="2" stroke-opacity="0.200000" points="536.98,-278.11 543.33,-277.7 538.11,-274.07 536.98,-278.11"/>
</g>
<!-- src/api/UserPresenter.console.ts&#45;&gt;src/domain/services/UserService.ts -->
<g id="edge6" class="edge">
<title>src/api/UserPresenter.console.ts&#45;&gt;src/domain/services/UserService.ts</title>
<path fill="none" stroke="#000000" stroke-width="2" stroke-opacity="0.200000" d="M331.16,-41.57C390.61,-18.13 558.64,37.24 660,-38.68 712.26,-77.83 716.94,-165.68 716.57,-201.27"/>
<polygon fill="#000000" fill-opacity="0.200000" stroke="#000000" stroke-width="2" stroke-opacity="0.200000" points="714.46,-201.62 716.44,-207.66 718.66,-201.71 714.46,-201.62"/>
</g>
<!-- src/domain/presenters/UserPresenter.ts&#45;&gt;src/domain/services/UserService.ts -->
<g id="edge31" class="edge">
<title>src/domain/presenters/UserPresenter.ts&#45;&gt;src/domain/services/UserService.ts</title>
<path fill="none" stroke="#000000" stroke-width="2" stroke-opacity="0.200000" d="M633.8,-276.93C643.45,-274.61 652.89,-270.55 660,-263.68 670.55,-253.5 657.94,-242.35 668,-231.68 668.97,-230.65 670.02,-229.69 671.12,-228.8"/>
<polygon fill="#000000" fill-opacity="0.200000" stroke="#000000" stroke-width="2" stroke-opacity="0.200000" points="672.5,-230.39 676.27,-225.28 670.13,-226.93 672.5,-230.39"/>
</g>
<!-- src/domain/presenters/UsersPresenter.ts&#45;&gt;src/domain/services/UserService.ts -->
<g id="edge32" class="edge">
<title>src/domain/presenters/UsersPresenter.ts&#45;&gt;src/domain/services/UserService.ts</title>
<path fill="none" stroke="#000000" stroke-width="2" stroke-opacity="0.200000" d="M625.41,-239.6C640.5,-235.78 658.16,-231.32 673.86,-227.34"/>
<polygon fill="#000000" fill-opacity="0.200000" stroke="#000000" stroke-width="2" stroke-opacity="0.200000" points="674.7,-229.3 680,-225.79 673.67,-225.23 674.7,-229.3"/>
</g>
<!-- src/core/dependenciesInjection.ts -->
<g id="node10" class="node">
<title>src/core/dependenciesInjection.ts</title>
<g id="a_node10"><a xlink:href="src/core/dependenciesInjection.ts" xlink:title="dependenciesInjection.ts">
<path fill="#ddfeff" stroke="black" d="M215,-312.68C215,-312.68 97,-312.68 97,-312.68 94,-312.68 91,-309.68 91,-306.68 91,-306.68 91,-300.68 91,-300.68 91,-297.68 94,-294.68 97,-294.68 97,-294.68 215,-294.68 215,-294.68 218,-294.68 221,-297.68 221,-300.68 221,-300.68 221,-306.68 221,-306.68 221,-309.68 218,-312.68 215,-312.68"/>
<text text-anchor="start" x="99" y="-301.48" font-family="Helvetica,sans-Serif" font-size="9.00">dependenciesInjection.ts</text>
</a>
</g>
</g>
<!-- src/core/dependenciesInjection.ts&#45;&gt;src/api/UserController.fastify.ts -->
<g id="edge11" class="edge">
<title>src/core/dependenciesInjection.ts&#45;&gt;src/api/UserController.fastify.ts</title>
<path fill="none" stroke="#000000" stroke-width="2" stroke-opacity="0.200000" d="M163.09,-294.67C186.24,-260.35 268.99,-137.74 297.65,-95.28"/>
<polygon fill="#000000" fill-opacity="0.200000" stroke="#000000" stroke-width="2" stroke-opacity="0.200000" points="299.56,-96.21 301.17,-90.06 296.07,-93.86 299.56,-96.21"/>
</g>
<!-- src/core/dependenciesInjection.ts&#45;&gt;src/domain/User.UseCases.ts -->
<g id="edge12" class="edge">
<title>src/core/dependenciesInjection.ts&#45;&gt;src/domain/User.UseCases.ts</title>
<path fill="none" stroke="#000000" stroke-width="2" stroke-opacity="0.200000" d="M221.31,-298.04C272.54,-293.55 343.28,-287.34 390.73,-283.18"/>
<polygon fill="#000000" fill-opacity="0.200000" stroke="#000000" stroke-width="2" stroke-opacity="0.200000" points="391.18,-285.25 396.98,-282.63 390.82,-281.07 391.18,-285.25"/>
</g>
<!-- src/spi/UserService.sqlite.ts -->
<g id="node11" class="node">
<title>src/spi/UserService.sqlite.ts</title>
<g id="a_node11"><a xlink:href="src/spi/UserService.sqlite.ts" xlink:title="UserService.sqlite.ts">
<path fill="#ddfeff" stroke="black" d="M356.5,-326.68C356.5,-326.68 260.5,-326.68 260.5,-326.68 257.5,-326.68 254.5,-323.68 254.5,-320.68 254.5,-320.68 254.5,-314.68 254.5,-314.68 254.5,-311.68 257.5,-308.68 260.5,-308.68 260.5,-308.68 356.5,-308.68 356.5,-308.68 359.5,-308.68 362.5,-311.68 362.5,-314.68 362.5,-314.68 362.5,-320.68 362.5,-320.68 362.5,-323.68 359.5,-326.68 356.5,-326.68"/>
<text text-anchor="start" x="262.5" y="-315.48" font-family="Helvetica,sans-Serif" font-size="9.00">UserService.sqlite.ts</text>
</a>
</g>
</g>
<!-- src/core/dependenciesInjection.ts&#45;&gt;src/spi/UserService.sqlite.ts -->
<g id="edge13" class="edge">
<title>src/core/dependenciesInjection.ts&#45;&gt;src/spi/UserService.sqlite.ts</title>
<path fill="none" stroke="#000000" stroke-width="2" stroke-opacity="0.200000" d="M221.26,-309.66C230.22,-310.5 239.39,-311.35 248.25,-312.17"/>
<polygon fill="#000000" fill-opacity="0.200000" stroke="#000000" stroke-width="2" stroke-opacity="0.200000" points="248.16,-314.27 254.33,-312.74 248.55,-310.09 248.16,-314.27"/>
</g>
<!-- src/spi/UuidService.node.ts -->
<g id="node12" class="node">
<title>src/spi/UuidService.node.ts</title>
<g id="a_node12"><a xlink:href="src/spi/UuidService.node.ts" xlink:title="UuidService.node.ts">
<path fill="#ddfeff" stroke="black" d="M356,-356.68C356,-356.68 261,-356.68 261,-356.68 258,-356.68 255,-353.68 255,-350.68 255,-350.68 255,-344.68 255,-344.68 255,-341.68 258,-338.68 261,-338.68 261,-338.68 356,-338.68 356,-338.68 359,-338.68 362,-341.68 362,-344.68 362,-344.68 362,-350.68 362,-350.68 362,-353.68 359,-356.68 356,-356.68"/>
<text text-anchor="start" x="263" y="-345.48" font-family="Helvetica,sans-Serif" font-size="9.00">UuidService.node.ts</text>
</a>
</g>
</g>
<!-- src/core/dependenciesInjection.ts&#45;&gt;src/spi/UuidService.node.ts -->
<g id="edge14" class="edge">
<title>src/core/dependenciesInjection.ts&#45;&gt;src/spi/UuidService.node.ts</title>
<path fill="none" stroke="#000000" stroke-width="2" stroke-opacity="0.200000" d="M179.49,-312.78C195.37,-318.97 217.26,-327.03 237,-332.68 242.68,-334.31 248.67,-335.85 254.66,-337.27"/>
<polygon fill="#000000" fill-opacity="0.200000" stroke="#000000" stroke-width="2" stroke-opacity="0.200000" points="254.31,-339.35 260.63,-338.66 255.26,-335.26 254.31,-339.35"/>
</g>
<!-- src/spi/UserService.sqlite.ts&#45;&gt;src/domain/services/UserService.ts -->
<g id="edge33" class="edge">
<title>src/spi/UserService.sqlite.ts&#45;&gt;src/domain/services/UserService.ts</title>
<path fill="none" stroke="#000000" stroke-width="2" stroke-opacity="0.200000" d="M362.76,-326.09C366.11,-327.9 369.24,-330.08 372,-332.68 386.52,-346.39 368.97,-363.78 385,-375.68 409.53,-393.9 637.8,-396.68 660,-375.68 671.64,-364.67 658.15,-244.33 668,-231.68 668.99,-230.42 670.08,-229.26 671.25,-228.19"/>
<polygon fill="#000000" fill-opacity="0.200000" stroke="#000000" stroke-width="2" stroke-opacity="0.200000" points="672.61,-229.8 676.18,-224.54 670.11,-226.43 672.61,-229.8"/>
</g>
<!-- src/spi/UuidService.node.ts&#45;&gt;src/domain/services/UuidService.ts -->
<g id="edge34" class="edge">
<title>src/spi/UuidService.node.ts&#45;&gt;src/domain/services/UuidService.ts</title>
<path fill="none" stroke="#000000" stroke-width="2" stroke-opacity="0.200000" d="M322.37,-356.79C336.82,-366.4 361.35,-380.94 385,-386.68 503.77,-415.55 570.9,-470.35 660,-386.68 680.61,-367.33 650.12,-281.59 668,-259.68 668.82,-258.68 669.71,-257.75 670.65,-256.89"/>
<polygon fill="#000000" fill-opacity="0.200000" stroke="#000000" stroke-width="2" stroke-opacity="0.200000" points="672.21,-258.35 675.81,-253.12 669.73,-254.96 672.21,-258.35"/>
</g>
<!-- src/core/main.ts -->
<g id="node13" class="node">
<title>src/core/main.ts</title>
<g id="a_node13"><a xlink:href="src/core/main.ts" xlink:title="main.ts">
<path fill="#ddfeff" stroke="black" d="M72,-312.68C72,-312.68 30,-312.68 30,-312.68 27,-312.68 24,-309.68 24,-306.68 24,-306.68 24,-300.68 24,-300.68 24,-297.68 27,-294.68 30,-294.68 30,-294.68 72,-294.68 72,-294.68 75,-294.68 78,-297.68 78,-300.68 78,-300.68 78,-306.68 78,-306.68 78,-309.68 75,-312.68 72,-312.68"/>
<text text-anchor="start" x="34" y="-301.48" font-family="Helvetica,sans-Serif" font-size="9.00">main.ts</text>
</a>
</g>
</g>
<!-- src/core/main.ts&#45;&gt;src/core/dependenciesInjection.ts -->
<g id="edge15" class="edge">
<title>src/core/main.ts&#45;&gt;src/core/dependenciesInjection.ts</title>
<path fill="none" stroke="#000000" stroke-width="2" stroke-opacity="0.200000" d="M78.26,-303.68C80.22,-303.68 82.26,-303.68 84.34,-303.68"/>
<polygon fill="#000000" fill-opacity="0.200000" stroke="#000000" stroke-width="2" stroke-opacity="0.200000" points="84.71,-305.78 90.71,-303.68 84.71,-301.58 84.71,-305.78"/>
</g>
<!-- src/domain/Email.ts -->
<g id="node14" class="node">
<title>src/domain/Email.ts</title>
<g id="a_node14"><a xlink:href="src/domain/Email.ts" xlink:title="Email.ts">
<path fill="#ddfeff" stroke="black" d="M738,-307.68C738,-307.68 696,-307.68 696,-307.68 693,-307.68 690,-304.68 690,-301.68 690,-301.68 690,-295.68 690,-295.68 690,-292.68 693,-289.68 696,-289.68 696,-289.68 738,-289.68 738,-289.68 741,-289.68 744,-292.68 744,-295.68 744,-295.68 744,-301.68 744,-301.68 744,-304.68 741,-307.68 738,-307.68"/>
<text text-anchor="start" x="698.5" y="-296.48" font-family="Helvetica,sans-Serif" font-size="9.00">Email.ts</text>
</a>
</g>
</g>
<!-- src/domain/ValueObject.ts -->
<g id="node15" class="node">
<title>src/domain/ValueObject.ts</title>
<g id="a_node15"><a xlink:href="src/domain/ValueObject.ts" xlink:title="ValueObject.ts">
<path fill="#ddfeff" stroke="black" d="M849,-337.68C849,-337.68 780,-337.68 780,-337.68 777,-337.68 774,-334.68 774,-331.68 774,-331.68 774,-325.68 774,-325.68 774,-322.68 777,-319.68 780,-319.68 780,-319.68 849,-319.68 849,-319.68 852,-319.68 855,-322.68 855,-325.68 855,-325.68 855,-331.68 855,-331.68 855,-334.68 852,-337.68 849,-337.68"/>
<text text-anchor="start" x="782" y="-326.48" font-family="Helvetica,sans-Serif" font-size="9.00">ValueObject.ts</text>
</a>
</g>
</g>
<!-- src/domain/Email.ts&#45;&gt;src/domain/ValueObject.ts -->
<g id="edge16" class="edge">
<title>src/domain/Email.ts&#45;&gt;src/domain/ValueObject.ts</title>
<path fill="none" stroke="#000000" stroke-width="2" stroke-opacity="0.200000" d="M744.16,-306.84C751.25,-309.06 758.92,-311.46 766,-313.68 770.2,-315 774.6,-316.39 778.97,-317.77"/>
<polygon fill="#000000" fill-opacity="0.200000" stroke="#000000" stroke-width="2" stroke-opacity="0.200000" points="778.52,-319.83 784.87,-319.63 779.78,-315.82 778.52,-319.83"/>
</g>
<!-- src/domain/Id.ts&#45;&gt;src/domain/ValueObject.ts -->
<g id="edge17" class="edge">
<title>src/domain/Id.ts&#45;&gt;src/domain/ValueObject.ts</title>
<path fill="none" stroke="#000000" stroke-width="2" stroke-opacity="0.200000" d="M744.16,-350.52C751.25,-348.31 758.92,-345.91 766,-343.68 770.2,-342.37 774.6,-340.98 778.97,-339.6"/>
<polygon fill="#000000" fill-opacity="0.200000" stroke="#000000" stroke-width="2" stroke-opacity="0.200000" points="779.78,-341.55 784.87,-337.74 778.52,-337.54 779.78,-341.55"/>
</g>
<!-- src/domain/Name.ts -->
<g id="node17" class="node">
<title>src/domain/Name.ts</title>
<g id="a_node17"><a xlink:href="src/domain/Name.ts" xlink:title="Name.ts">
<path fill="#ddfeff" stroke="black" d="M738,-337.68C738,-337.68 696,-337.68 696,-337.68 693,-337.68 690,-334.68 690,-331.68 690,-331.68 690,-325.68 690,-325.68 690,-322.68 693,-319.68 696,-319.68 696,-319.68 738,-319.68 738,-319.68 741,-319.68 744,-322.68 744,-325.68 744,-325.68 744,-331.68 744,-331.68 744,-334.68 741,-337.68 738,-337.68"/>
<text text-anchor="start" x="698" y="-326.48" font-family="Helvetica,sans-Serif" font-size="9.00">Name.ts</text>
</a>
</g>
</g>
<!-- src/domain/Name.ts&#45;&gt;src/domain/ValueObject.ts -->
<g id="edge18" class="edge">
<title>src/domain/Name.ts&#45;&gt;src/domain/ValueObject.ts</title>
<path fill="none" stroke="#000000" stroke-width="2" stroke-opacity="0.200000" d="M744.1,-328.68C751.4,-328.68 759.56,-328.68 767.65,-328.68"/>
<polygon fill="#000000" fill-opacity="0.200000" stroke="#000000" stroke-width="2" stroke-opacity="0.200000" points="767.81,-330.78 773.81,-328.68 767.81,-326.58 767.81,-330.78"/>
</g>
<!-- src/domain/User.ts&#45;&gt;src/domain/services/UserService.ts -->
<g id="edge29" class="edge">
<title>src/domain/User.ts&#45;&gt;src/domain/services/UserService.ts</title>
<path fill="none" stroke="#000000" stroke-width="2" stroke-opacity="0.200000" d="M615.52,-345.06C630.82,-343.8 649.23,-339.41 660,-326.68 673.69,-310.51 654.75,-248.21 668,-231.68 669,-230.43 670.11,-229.28 671.3,-228.23"/>
<polygon fill="#000000" fill-opacity="0.200000" stroke="#000000" stroke-width="2" stroke-opacity="0.200000" points="672.65,-229.84 676.26,-224.61 670.18,-226.45 672.65,-229.84"/>
</g>
<!-- src/domain/User.ts&#45;&gt;src/domain/Email.ts -->
<g id="edge26" class="edge">
<title>src/domain/User.ts&#45;&gt;src/domain/Email.ts</title>
<path fill="none" stroke="#000000" stroke-width="2" stroke-opacity="0.200000" d="M615.66,-342.77C629.9,-340.63 647.18,-336.12 660,-326.68 665.46,-322.66 662.64,-317.85 668,-313.68 672.76,-309.99 678.43,-307.19 684.19,-305.08"/>
<polygon fill="#000000" fill-opacity="0.200000" stroke="#000000" stroke-width="2" stroke-opacity="0.200000" points="684.9,-307.06 689.95,-303.19 683.59,-303.07 684.9,-307.06"/>
</g>
<!-- src/domain/User.ts&#45;&gt;src/domain/Id.ts -->
<g id="edge27" class="edge">
<title>src/domain/User.ts&#45;&gt;src/domain/Id.ts</title>
<path fill="none" stroke="#000000" stroke-width="2" stroke-opacity="0.200000" d="M615.71,-347.59C635.47,-349.77 662.68,-352.78 683.77,-355.12"/>
<polygon fill="#000000" fill-opacity="0.200000" stroke="#000000" stroke-width="2" stroke-opacity="0.200000" points="683.63,-357.21 689.82,-355.79 684.09,-353.04 683.63,-357.21"/>
</g>
<!-- src/domain/User.ts&#45;&gt;src/domain/Name.ts -->
<g id="edge28" class="edge">
<title>src/domain/User.ts&#45;&gt;src/domain/Name.ts</title>
<path fill="none" stroke="#000000" stroke-width="2" stroke-opacity="0.200000" d="M615.71,-341.37C635.47,-338.87 662.68,-335.43 683.77,-332.76"/>
<polygon fill="#000000" fill-opacity="0.200000" stroke="#000000" stroke-width="2" stroke-opacity="0.200000" points="684.13,-334.83 689.82,-332 683.61,-330.66 684.13,-334.83"/>
</g>
<!-- src/domain/__tests__/UserService.inMemory.ts -->
<g id="node20" class="node">
<title>src/domain/__tests__/UserService.inMemory.ts</title>
<g id="a_node20"><a xlink:href="src/domain/__tests__/UserService.inMemory.ts" xlink:title="UserService.inMemory.ts">
<path fill="#ddfeff" stroke="black" d="M646,-197.68C646,-197.68 531,-197.68 531,-197.68 528,-197.68 525,-194.68 525,-191.68 525,-191.68 525,-185.68 525,-185.68 525,-182.68 528,-179.68 531,-179.68 531,-179.68 646,-179.68 646,-179.68 649,-179.68 652,-182.68 652,-185.68 652,-185.68 652,-191.68 652,-191.68 652,-194.68 649,-197.68 646,-197.68"/>
<text text-anchor="start" x="533" y="-186.48" font-family="Helvetica,sans-Serif" font-size="9.00">UserService.inMemory.ts</text>
</a>
</g>
</g>
<!-- src/domain/__tests__/UserService.inMemory.ts&#45;&gt;src/domain/services/UserService.ts -->
<g id="edge30" class="edge">
<title>src/domain/__tests__/UserService.inMemory.ts&#45;&gt;src/domain/services/UserService.ts</title>
<path fill="none" stroke="#000000" stroke-width="2" stroke-opacity="0.200000" d="M630.22,-197.7C643,-200.53 657.19,-203.67 670.29,-206.57"/>
<polygon fill="#000000" fill-opacity="0.200000" stroke="#000000" stroke-width="2" stroke-opacity="0.200000" points="669.91,-208.63 676.22,-207.88 670.81,-204.53 669.91,-208.63"/>
</g>
</g>
</svg>
